RobotoSerifDisplay-SuperWidth1800.ufo
<glyph name="ampersand" format="2">
  <advance width="1020"/>
  <unicode hex="0026"/>
  <outline>
    <contour>
      <point x="918" y="333" type="curve" smooth="yes"/>
      <point x="926" y="361"/>
      <point x="939" y="366"/>
      <point x="983" y="366" type="curve" smooth="yes"/>
      <point x="1001" y="366" type="line"/>
      <point x="1001" y="400" type="line"/>
      <point x="740" y="400" type="line"/>
      <point x="740" y="366" type="line"/>
      <point x="751" y="366" type="line" smooth="yes"/>
      <point x="785" y="366"/>
      <point x="828" y="363"/>
      <point x="828" y="356" type="curve"/>
      <point x="828" y="214"/>
      <point x="634" y="38"/>
      <point x="469" y="38" type="curve" smooth="yes"/>
      <point x="359" y="38"/>
      <point x="292" y="96"/>
      <point x="292" y="206" type="curve" smooth="yes"/>
      <point x="292" y="295"/>
      <point x="321" y="350"/>
      <point x="378" y="388" type="curve"/>
      <point x="357" y="400" type="line"/>
      <point x="165" y="370"/>
      <point x="27" y="301"/>
      <point x="27" y="190" type="curve" smooth="yes"/>
      <point x="27" y="66"/>
      <point x="175" y="-10"/>
      <point x="383" y="-10" type="curve" smooth="yes"/>
      <point x="706" y="-10"/>
      <point x="865" y="210"/>
    </contour>
    <contour>
      <point x="1000" y="0" type="line"/>
      <point x="1001" y="34" type="line"/>
      <point x="999" y="34" type="line" smooth="yes"/>
      <point x="971" y="34"/>
      <point x="918" y="68"/>
      <point x="872" y="104" type="curve" smooth="yes"/>
      <point x="647" y="278"/>
      <point x="494" y="433"/>
      <point x="494" y="562" type="curve" smooth="yes"/>
      <point x="494" y="646"/>
      <point x="520" y="680"/>
      <point x="561" y="680" type="curve" smooth="yes"/>
      <point x="605" y="680"/>
      <point x="620" y="642"/>
      <point x="620" y="585" type="curve" smooth="yes"/>
      <point x="620" y="505"/>
      <point x="589" y="454"/>
      <point x="485" y="420" type="curve"/>
      <point x="503" y="397" type="line"/>
      <point x="671" y="434"/>
      <point x="805" y="490"/>
      <point x="805" y="584" type="curve" smooth="yes"/>
      <point x="805" y="662"/>
      <point x="715" y="719"/>
      <point x="545" y="719" type="curve" smooth="yes"/>
      <point x="360" y="719"/>
      <point x="238" y="652"/>
      <point x="238" y="538" type="curve" smooth="yes"/>
      <point x="238" y="377"/>
      <point x="414" y="172"/>
      <point x="672" y="0" type="curve"/>
    </contour>
  </outline>
</glyph>
<glyph name="slash" format="2">
  <advance width="501"/>
  <unicode hex="002F"/>
  <outline>
    <contour>
      <point x="441" y="740" type="line"/>
      <point x="-18" y="-139" type="line"/>
      <point x="59" y="-139" type="line"/>
      <point x="518" y="740" type="line"/>
    </contour>
  </outline>
</glyph>
<glyph name="three" format="2">
  <advance width="707"/>
  <unicode hex="0033"/>
  <outline>
    <contour>
      <point x="285" y="-46" type="curve" smooth="yes"/>
      <point x="379" y="-46"/>
      <point x="421" y="11"/>
      <point x="421" y="115" type="curve" smooth="yes"/>
      <point x="421" y="204"/>
      <point x="396" y="264"/>
      <point x="271" y="264" type="curve" smooth="yes"/>
      <point x="212" y="264" type="line"/>
      <point x="212" y="303" type="line"/>
      <point x="275" y="303" type="line" smooth="yes"/>
      <point x="374" y="303"/>
      <point x="407" y="348"/>
      <point x="407" y="446" type="curve" smooth="yes"/>
      <point x="407" y="536"/>
      <point x="374" y="577"/>
      <point x="325" y="577" type="curve" smooth="yes"/>
      <point x="284" y="577"/>
      <point x="259" y="554"/>
      <point x="239" y="522" type="curve"/>
      <point x="239" y="537"/>
      <point x="266" y="574"/>
      <point x="268" y="576" type="curve"/>
      <point x="268" y="438" type="line"/>
      <point x="68" y="438" type="line"/>
      <point x="68" y="540" type="line"/>
      <point x="122" y="577"/>
      <point x="224" y="618"/>
      <point x="363" y="618" type="curve" smooth="yes"/>
      <point x="532" y="618"/>
      <point x="674" y="563"/>
      <point x="674" y="456" type="curve" smooth="yes"/>
      <point x="674" y="345"/>
      <point x="495" y="284"/>
      <point x="269" y="284" type="curve"/>
      <point x="294" y="294" type="line"/>
      <point x="582" y="294"/>
      <point x="696" y="221"/>
      <point x="696" y="113" type="curve" smooth="yes"/>
      <point x="696" y="-14"/>
      <point x="542" y="-90"/>
      <point x="349" y="-90" type="curve" smooth="yes"/>
      <point x="146" y="-90"/>
      <point x="56" y="-18"/>
      <point x="14" y="70" type="curve"/>
      <point x="68" y="96" type="line"/>
      <point x="100" y="20"/>
      <point x="171" y="-46"/>
    </contour>
  </outline>
</glyph>
<glyph name="F" format="2">
  <advance width="789"/>
  <unicode hex="0046"/>
  <outline>
    <contour>
      <point x="413" y="666" type="line"/>
      <point x="564" y="666" type="line" smooth="yes"/>
      <point x="630" y="666"/>
      <point x="669" y="655"/>
      <point x="680" y="617" type="curve" smooth="yes"/>
      <point x="706" y="524" type="line"/>
      <point x="764" y="524" type="line"/>
      <point x="764" y="710" type="line"/>
      <point x="25" y="710" type="line"/>
      <point x="25" y="674" type="line"/>
      <point x="37" y="674" type="line" smooth="yes"/>
      <point x="70" y="674"/>
      <point x="95" y="667"/>
      <point x="95" y="638" type="curve" smooth="yes"/>
      <point x="95" y="72" type="line" smooth="yes"/>
      <point x="95" y="43"/>
      <point x="71" y="36"/>
      <point x="37" y="36" type="curve" smooth="yes"/>
      <point x="25" y="36" type="line"/>
      <point x="25" y="0" type="line"/>
      <point x="509" y="0" type="line"/>
      <point x="509" y="36" type="line"/>
      <point x="487" y="36" type="line" smooth="yes"/>
      <point x="454" y="36"/>
      <point x="413" y="38"/>
      <point x="413" y="67" type="curve" smooth="yes"/>
    </contour>
    <contour>
      <point x="380" y="378" type="curve"/>
      <point x="380" y="341" type="line"/>
      <point x="507" y="338"/>
      <point x="594" y="331"/>
      <point x="677" y="314" type="curve"/>
      <point x="677" y="405" type="line"/>
      <point x="594" y="389"/>
      <point x="507" y="383"/>
    </contour>
  </outline>
</glyph>
<glyph name="O" format="2">
  <advance width="1028"/>
  <unicode hex="004F"/>
  <outline>
    <contour>
      <point x="514" y="720" type="curve" smooth="yes"/>
      <point x="230" y="720"/>
      <point x="32" y="574"/>
      <point x="32" y="355" type="curve" smooth="yes"/>
      <point x="32" y="136"/>
      <point x="230" y="-10"/>
      <point x="514" y="-10" type="curve" smooth="yes"/>
      <point x="799" y="-10"/>
      <point x="997" y="136"/>
      <point x="997" y="355" type="curve" smooth="yes"/>
      <point x="997" y="574"/>
      <point x="799" y="720"/>
    </contour>
    <contour>
      <point x="514" y="34" type="curve" smooth="yes"/>
      <point x="408" y="34"/>
      <point x="362" y="140"/>
      <point x="362" y="355" type="curve" smooth="yes"/>
      <point x="362" y="565"/>
      <point x="408" y="676"/>
      <point x="514" y="676" type="curve" smooth="yes"/>
      <point x="622" y="676"/>
      <point x="667" y="565"/>
      <point x="667" y="355" type="curve" smooth="yes"/>
      <point x="667" y="140"/>
      <point x="622" y="34"/>
    </contour>
  </outline>
</glyph>
<glyph name="S" format="2">
  <advance width="790"/>
  <unicode hex="0053"/>
  <outline>
    <contour>
      <point x="397" y="34" type="curve" smooth="yes"/>
      <point x="275" y="34"/>
      <point x="163" y="92"/>
      <point x="109" y="216" type="curve"/>
      <point x="43" y="216" type="line"/>
      <point x="43" y="0" type="line"/>
      <point x="106" y="0" type="line"/>
      <point x="127" y="116" type="line"/>
      <point x="126" y="124"/>
      <point x="81" y="146"/>
      <point x="80" y="151" type="curve"/>
      <point x="146" y="40"/>
      <point x="274" y="-10"/>
      <point x="424" y="-10" type="curve" smooth="yes"/>
      <point x="661" y="-10"/>
      <point x="787" y="80"/>
      <point x="787" y="220" type="curve" smooth="yes"/>
      <point x="787" y="364"/>
      <point x="656" y="411"/>
      <point x="504" y="442" type="curve" smooth="yes"/>
      <point x="372" y="471"/>
      <point x="276" y="492"/>
      <point x="276" y="576" type="curve" smooth="yes"/>
      <point x="276" y="638"/>
      <point x="322" y="676"/>
      <point x="410" y="676" type="curve" smooth="yes"/>
      <point x="521" y="676"/>
      <point x="609" y="619"/>
      <point x="652" y="526" type="curve"/>
      <point x="711" y="526" type="line"/>
      <point x="711" y="710" type="line"/>
      <point x="648" y="710" type="line"/>
      <point x="627" y="604" type="line"/>
      <point x="628" y="600"/>
      <point x="676" y="583"/>
      <point x="677" y="582" type="curve"/>
      <point x="628" y="666"/>
      <point x="537" y="720"/>
      <point x="376" y="720" type="curve" smooth="yes"/>
      <point x="197" y="720"/>
      <point x="44" y="644"/>
      <point x="44" y="516" type="curve" smooth="yes"/>
      <point x="44" y="374"/>
      <point x="170" y="324"/>
      <point x="299" y="292" type="curve" smooth="yes"/>
      <point x="468" y="255"/>
      <point x="552" y="232"/>
      <point x="552" y="150" type="curve" smooth="yes"/>
      <point x="552" y="68"/>
      <point x="498" y="34"/>
    </contour>
  </outline>
</glyph>
<glyph name="X" format="2">
  <advance width="897"/>
  <unicode hex="0058"/>
  <outline>
    <contour>
      <point x="26" y="674" type="line"/>
      <point x="31" y="674" type="line" smooth="yes"/>
      <point x="54" y="674"/>
      <point x="69" y="670"/>
      <point x="87" y="644" type="curve" smooth="yes"/>
      <point x="319" y="327" type="line"/>
      <point x="325" y="324" type="line"/>
      <point x="498" y="47" type="line"/>
      <point x="498" y="40"/>
      <point x="471" y="36"/>
      <point x="452" y="36" type="curve" smooth="yes"/>
      <point x="433" y="36" type="line"/>
      <point x="433" y="0" type="line"/>
      <point x="891" y="0" type="line"/>
      <point x="891" y="36" type="line"/>
      <point x="878" y="36" type="line" smooth="yes"/>
      <point x="860" y="36"/>
      <point x="847" y="41"/>
      <point x="832" y="63" type="curve" smooth="yes"/>
      <point x="590" y="405" type="line"/>
      <point x="583" y="408" type="line"/>
      <point x="425" y="663" type="line"/>
      <point x="425" y="670"/>
      <point x="450" y="674"/>
      <point x="470" y="674" type="curve" smooth="yes"/>
      <point x="488" y="674" type="line"/>
      <point x="488" y="710" type="line"/>
      <point x="26" y="710" type="line"/>
    </contour>
    <contour>
      <point x="6" y="0" type="line"/>
      <point x="210" y="0" type="line"/>
      <point x="210" y="36" type="line"/>
      <point x="197" y="36" type="line" smooth="yes"/>
      <point x="173" y="36"/>
      <point x="148" y="44"/>
      <point x="148" y="54" type="curve"/>
      <point x="391" y="348" type="line"/>
      <point x="346" y="381" type="line"/>
      <point x="87" y="86" type="line" smooth="yes"/>
      <point x="60" y="56"/>
      <point x="42" y="36"/>
      <point x="18" y="36" type="curve" smooth="yes"/>
      <point x="6" y="36" type="line"/>
    </contour>
    <contour>
      <point x="562" y="355" type="line"/>
      <point x="789" y="634" type="line" smooth="yes"/>
      <point x="811" y="662"/>
      <point x="833" y="674"/>
      <point x="858" y="674" type="curve" smooth="yes"/>
      <point x="864" y="674" type="line"/>
      <point x="864" y="710" type="line"/>
      <point x="659" y="710" type="line"/>
      <point x="659" y="674" type="line"/>
      <point x="674" y="674" type="line" smooth="yes"/>
      <point x="698" y="674"/>
      <point x="725" y="666"/>
      <point x="725" y="654" type="curve"/>
      <point x="515" y="386" type="line"/>
    </contour>
  </outline>
</glyph>
<glyph name="Y" format="2">
  <advance width="879"/>
  <unicode hex="0059"/>
  <outline>
    <contour>
      <point x="285" y="354" type="line"/>
      <point x="285" y="70" type="line" smooth="yes"/>
      <point x="285" y="40"/>
      <point x="260" y="36"/>
      <point x="227" y="36" type="curve" smooth="yes"/>
      <point x="209" y="36" type="line"/>
      <point x="209" y="0" type="line"/>
      <point x="678" y="0" type="line"/>
      <point x="678" y="36" type="line"/>
      <point x="660" y="36" type="line" smooth="yes"/>
      <point x="627" y="36"/>
      <point x="602" y="40"/>
      <point x="602" y="70" type="curve" smooth="yes"/>
      <point x="602" y="354" type="line"/>
      <point x="565" y="294" type="line"/>
      <point x="807" y="628" type="line" smooth="yes"/>
      <point x="821" y="660"/>
      <point x="836" y="674"/>
      <point x="864" y="674" type="curve" smooth="yes"/>
      <point x="874" y="674" type="line"/>
      <point x="874" y="710" type="line"/>
      <point x="666" y="710" type="line"/>
      <point x="666" y="674" type="line"/>
      <point x="681" y="674" type="line" smooth="yes"/>
      <point x="715" y="674"/>
      <point x="737" y="664"/>
      <point x="737" y="652" type="curve"/>
      <point x="555" y="360" type="line"/>
      <point x="577" y="360" type="line"/>
      <point x="392" y="662" type="line"/>
      <point x="392" y="670"/>
      <point x="411" y="674"/>
      <point x="441" y="674" type="curve" smooth="yes"/>
      <point x="462" y="674" type="line"/>
      <point x="462" y="710" type="line"/>
      <point x="6" y="710" type="line"/>
      <point x="6" y="674" type="line"/>
      <point x="17" y="674" type="line" smooth="yes"/>
      <point x="39" y="674"/>
      <point x="49" y="670"/>
      <point x="62" y="649" type="curve" smooth="yes"/>
      <point x="323" y="294" type="line"/>
    </contour>
  </outline>
</glyph>
<glyph name="Z" format="2">
  <advance width="794"/>
  <unicode hex="005A"/>
  <outline>
    <contour>
      <point x="220" y="44" type="line"/>
      <point x="276" y="12" type="line"/>
      <point x="757" y="650" type="line"/>
      <point x="757" y="710" type="line"/>
      <point x="44" y="710" type="line"/>
      <point x="44" y="520" type="line"/>
      <point x="102" y="520" type="line"/>
      <point x="127" y="616" type="line" smooth="yes"/>
      <point x="136" y="656"/>
      <point x="176" y="666"/>
      <point x="243" y="666" type="curve" smooth="yes"/>
      <point x="527" y="666" type="line"/>
      <point x="483" y="688" type="line"/>
      <point x="16" y="64" type="line"/>
      <point x="16" y="0" type="line"/>
      <point x="777" y="0" type="line"/>
      <point x="777" y="218" type="line"/>
      <point x="719" y="218" type="line"/>
      <point x="694" y="95" type="line" smooth="yes"/>
      <point x="686" y="54"/>
      <point x="651" y="44"/>
      <point x="553" y="44" type="curve" smooth="yes"/>
    </contour>
  </outline>
</glyph>
<glyph name="c" format="2">
  <advance width="732"/>
  <unicode hex="0063"/>
  <outline>
    <contour>
      <point x="477" y="36" type="curve" smooth="yes"/>
      <point x="383" y="36"/>
      <point x="332" y="109"/>
      <point x="332" y="261" type="curve" smooth="yes"/>
      <point x="332" y="416"/>
      <point x="379" y="490"/>
      <point x="449" y="490" type="curve" smooth="yes"/>
      <point x="481" y="490"/>
      <point x="499" y="471"/>
      <point x="513" y="446" type="curve"/>
      <point x="523" y="468"/>
      <point x="502" y="487"/>
      <point x="487" y="490" type="curve"/>
      <point x="487" y="359" type="line"/>
      <point x="691" y="359" type="line"/>
      <point x="691" y="478" type="line"/>
      <point x="658" y="501"/>
      <point x="561" y="531"/>
      <point x="423" y="531" type="curve" smooth="yes"/>
      <point x="181" y="531"/>
      <point x="26" y="426"/>
      <point x="26" y="261" type="curve" smooth="yes"/>
      <point x="26" y="94"/>
      <point x="192" y="-10"/>
      <point x="412" y="-10" type="curve" smooth="yes"/>
      <point x="575" y="-10"/>
      <point x="660" y="42"/>
      <point x="714" y="124" type="curve"/>
      <point x="664" y="147" type="line"/>
      <point x="628" y="87"/>
      <point x="567" y="36"/>
    </contour>
  </outline>
</glyph>
<glyph name="h" format="2">
  <advance width="859"/>
  <unicode hex="0068"/>
  <outline>
    <contour>
      <point x="855" y="0" type="line"/>
      <point x="855" y="34" type="line"/>
      <point x="852" y="34" type="line" smooth="yes"/>
      <point x="827" y="34"/>
      <point x="807" y="40"/>
      <point x="807" y="64" type="curve" smooth="yes"/>
      <point x="807" y="360" type="line" smooth="yes"/>
      <point x="807" y="472"/>
      <point x="718" y="531"/>
      <point x="583" y="531" type="curve" smooth="yes"/>
      <point x="469" y="531"/>
      <point x="381" y="486"/>
      <point x="341" y="414" type="curve"/>
      <point x="341" y="346" type="line"/>
      <point x="371" y="423"/>
      <point x="413" y="462"/>
      <point x="459" y="462" type="curve" smooth="yes"/>
      <point x="496" y="462"/>
      <point x="507" y="436"/>
      <point x="507" y="375" type="curve" smooth="yes"/>
      <point x="507" y="44" type="line" smooth="yes"/>
      <point x="507" y="37"/>
      <point x="483" y="34"/>
      <point x="466" y="34" type="curve" smooth="yes"/>
      <point x="465" y="34" type="line"/>
      <point x="465" y="0" type="line"/>
    </contour>
    <contour>
      <point x="364" y="750" type="line"/>
      <point x="17" y="750" type="line"/>
      <point x="17" y="715" type="line"/>
      <point x="29" y="713" type="line" smooth="yes"/>
      <point x="55" y="707"/>
      <point x="65" y="700"/>
      <point x="65" y="679" type="curve" smooth="yes"/>
      <point x="65" y="64" type="line" smooth="yes"/>
      <point x="65" y="40"/>
      <point x="43" y="34"/>
      <point x="18" y="34" type="curve" smooth="yes"/>
      <point x="17" y="34" type="line"/>
      <point x="17" y="0" type="line"/>
      <point x="407" y="0" type="line"/>
      <point x="407" y="34" type="line"/>
      <point x="405" y="34" type="line" smooth="yes"/>
      <point x="383" y="34"/>
      <point x="364" y="38"/>
      <point x="364" y="51" type="curve" smooth="yes"/>
    </contour>
  </outline>
</glyph>
<glyph name="i" format="2">
  <advance width="423"/>
  <unicode hex="0069"/>
  <outline>
    <contour>
      <point x="213" y="604" type="curve" smooth="yes"/>
      <point x="310" y="604"/>
      <point x="365" y="634"/>
      <point x="365" y="683" type="curve" smooth="yes"/>
      <point x="365" y="732"/>
      <point x="310" y="762"/>
      <point x="213" y="762" type="curve" smooth="yes"/>
      <point x="117" y="762"/>
      <point x="59" y="732"/>
      <point x="59" y="683" type="curve" smooth="yes"/>
      <point x="59" y="633"/>
      <point x="117" y="604"/>
    </contour>
    <contour>
      <point x="364" y="521" type="line"/>
      <point x="17" y="521" type="line"/>
      <point x="17" y="486" type="line"/>
      <point x="29" y="484" type="line" smooth="yes"/>
      <point x="55" y="478"/>
      <point x="65" y="472"/>
      <point x="65" y="450" type="curve" smooth="yes"/>
      <point x="65" y="64" type="line" smooth="yes"/>
      <point x="65" y="40"/>
      <point x="44" y="34"/>
      <point x="18" y="34" type="curve" smooth="yes"/>
      <point x="17" y="34" type="line"/>
      <point x="17" y="0" type="line"/>
      <point x="412" y="0" type="line"/>
      <point x="412" y="34" type="line"/>
      <point x="410" y="34" type="line" smooth="yes"/>
      <point x="385" y="34"/>
      <point x="364" y="40"/>
      <point x="364" y="64" type="curve" smooth="yes"/>
    </contour>
  </outline>
</glyph>
<glyph name="o" format="2">
  <advance width="839"/>
  <unicode hex="006F"/>
  <outline>
    <contour>
      <point x="420" y="-10" type="curve" smooth="yes"/>
      <point x="665" y="-10"/>
      <point x="813" y="99"/>
      <point x="813" y="260" type="curve" smooth="yes"/>
      <point x="813" y="421"/>
      <point x="665" y="531"/>
      <point x="420" y="531" type="curve" smooth="yes"/>
      <point x="174" y="531"/>
      <point x="26" y="420"/>
      <point x="26" y="260" type="curve" smooth="yes"/>
      <point x="26" y="100"/>
      <point x="174" y="-10"/>
    </contour>
    <contour>
      <point x="420" y="31" type="curve" smooth="yes"/>
      <point x="359" y="31"/>
      <point x="332" y="102"/>
      <point x="332" y="260" type="curve" smooth="yes"/>
      <point x="332" y="418"/>
      <point x="359" y="490"/>
      <point x="420" y="490" type="curve" smooth="yes"/>
      <point x="480" y="490"/>
      <point x="507" y="419"/>
      <point x="507" y="260" type="curve" smooth="yes"/>
      <point x="507" y="102"/>
      <point x="480" y="31"/>
    </contour>
  </outline>
</glyph>
<glyph name="p" format="2">
  <advance width="872"/>
  <unicode hex="0070"/>
  <outline>
    <contour>
      <point x="17" y="-223" type="line"/>
      <point x="438" y="-223" type="line"/>
      <point x="438" y="-188" type="line"/>
      <point x="434" y="-188" type="line" smooth="yes"/>
      <point x="397" y="-188"/>
      <point x="364" y="-186"/>
      <point x="364" y="-179" type="curve" smooth="yes"/>
      <point x="364" y="409" type="line"/>
      <point x="347" y="409" type="line"/>
      <point x="347" y="521" type="line"/>
      <point x="17" y="521" type="line"/>
      <point x="17" y="486" type="line"/>
      <point x="30" y="484" type="line" smooth="yes"/>
      <point x="55" y="478"/>
      <point x="65" y="472"/>
      <point x="65" y="450" type="curve" smooth="yes"/>
      <point x="65" y="-159" type="line" smooth="yes"/>
      <point x="65" y="-184"/>
      <point x="43" y="-188"/>
      <point x="18" y="-188" type="curve"/>
      <point x="17" y="-188" type="line"/>
    </contour>
    <contour>
      <point x="534" y="-10" type="curve" smooth="yes"/>
      <point x="712" y="-10"/>
      <point x="839" y="104"/>
      <point x="839" y="266" type="curve" smooth="yes"/>
      <point x="839" y="426"/>
      <point x="730" y="531"/>
      <point x="561" y="531" type="curve" smooth="yes"/>
      <point x="467" y="531"/>
      <point x="394" y="496"/>
      <point x="341" y="426" type="curve"/>
      <point x="341" y="360" type="line"/>
      <point x="373" y="430"/>
      <point x="414" y="469"/>
      <point x="455" y="469" type="curve" smooth="yes"/>
      <point x="510" y="469"/>
      <point x="533" y="404"/>
      <point x="533" y="266" type="curve" smooth="yes"/>
      <point x="533" y="124"/>
      <point x="508" y="44"/>
      <point x="442" y="44" type="curve" smooth="yes"/>
      <point x="391" y="44"/>
      <point x="361" y="76"/>
      <point x="341" y="162" type="curve"/>
      <point x="341" y="72" type="line"/>
      <point x="381" y="13"/>
      <point x="443" y="-10"/>
    </contour>
  </outline>
</glyph>
<glyph name="v" format="2">
  <advance width="729"/>
  <unicode hex="0076"/>
  <outline>
    <contour>
      <point x="608" y="468" type="curve"/>
      <point x="466" y="104" type="line"/>
      <point x="491" y="121" type="line"/>
      <point x="349" y="477" type="line"/>
      <point x="349" y="484"/>
      <point x="383" y="486"/>
      <point x="413" y="486" type="curve" smooth="yes"/>
      <point x="415" y="486" type="line"/>
      <point x="415" y="521" type="line"/>
      <point x="6" y="521" type="line"/>
      <point x="6" y="486" type="line"/>
      <point x="7" y="486" type="line" smooth="yes"/>
      <point x="34" y="486"/>
      <point x="45" y="480"/>
      <point x="56" y="454" type="curve" smooth="yes"/>
      <point x="260" y="0" type="line"/>
      <point x="468" y="0" type="line"/>
      <point x="667" y="442" type="line" smooth="yes"/>
      <point x="681" y="475"/>
      <point x="699" y="486"/>
      <point x="722" y="486" type="curve" smooth="yes"/>
      <point x="723" y="486" type="line"/>
      <point x="723" y="521" type="line"/>
      <point x="544" y="521" type="line"/>
      <point x="544" y="486" type="line"/>
      <point x="546" y="486" type="line" smooth="yes"/>
      <point x="580" y="486"/>
      <point x="608" y="478"/>
    </contour>
  </outline>
</glyph>
<glyph name="z" format="2">
  <advance width="674"/>
  <unicode hex="007A"/>
  <outline>
    <contour>
      <point x="310" y="22" type="line"/>
      <point x="649" y="466" type="line"/>
      <point x="649" y="521" type="line"/>
      <point x="37" y="521" type="line"/>
      <point x="37" y="352" type="line"/>
      <point x="93" y="352" type="line"/>
      <point x="113" y="434" type="line" smooth="yes"/>
      <point x="123" y="473"/>
      <point x="149" y="482"/>
      <point x="228" y="482" type="curve" smooth="yes"/>
      <point x="429" y="482" type="line"/>
      <point x="372" y="504" type="line"/>
      <point x="22" y="58" type="line"/>
      <point x="22" y="0" type="line"/>
      <point x="660" y="0" type="line"/>
      <point x="660" y="182" type="line"/>
      <point x="603" y="182" type="line"/>
      <point x="579" y="89" type="line" smooth="yes"/>
      <point x="570" y="48"/>
      <point x="543" y="40"/>
      <point x="465" y="40" type="curve" smooth="yes"/>
      <point x="273" y="40" type="line"/>
    </contour>
  </outline>
</glyph>
<glyph name="brokenbar" format="2">
  <advance width="366"/>
  <unicode hex="00A6"/>
  <outline>
    <contour>
      <point x="92" y="760" type="line"/>
      <point x="92" y="370" type="line"/>
      <point x="275" y="370" type="line"/>
      <point x="275" y="760" type="line"/>
    </contour>
    <contour>
      <point x="92" y="241" type="line"/>
      <point x="92" y="-149" type="line"/>
      <point x="275" y="-149" type="line"/>
      <point x="275" y="241" type="line"/>
    </contour>
  </outline>
</glyph>
<glyph name="acute" format="2">
  <advance width="630"/>
  <unicode hex="00B4"/>
  <anchor x="273" y="527.0" name="_top"/>
  <outline>
    <contour>
      <point x="264" y="698" type="curve" smooth="yes"/>
      <point x="231" y="587" type="line"/>
      <point x="231" y="564" type="line"/>
      <point x="318" y="564" type="line"/>
      <point x="411" y="633" type="line" smooth="yes"/>
      <point x="479" y="659"/>
      <point x="509" y="688"/>
      <point x="509" y="720" type="curve" smooth="yes"/>
      <point x="509" y="752"/>
      <point x="468" y="776"/>
      <point x="402" y="776" type="curve" smooth="yes"/>
      <point x="326" y="776"/>
      <point x="286" y="748"/>
    </contour>
  </outline>
</glyph>
<glyph name="paragraph" format="2">
  <advance width="824"/>
  <unicode hex="00B6"/>
  <outline>
    <contour>
      <point x="800" y="710" type="line"/>
      <point x="800" y="654" type="line"/>
      <point x="788" y="654" type="line" smooth="yes"/>
      <point x="754" y="654"/>
      <point x="729" y="647"/>
      <point x="729" y="618" type="curve" smooth="yes"/>
      <point x="729" y="0" type="line"/>
      <point x="564" y="0" type="line"/>
      <point x="564" y="710" type="line"/>
    </contour>
    <contour>
      <point x="495" y="0" type="line"/>
      <point x="329" y="0" type="line"/>
      <point x="329" y="315" type="line"/>
      <point x="323" y="315" type="line" smooth="yes"/>
      <point x="134" y="315"/>
      <point x="18" y="399"/>
      <point x="18" y="518" type="curve" smooth="yes"/>
      <point x="18" y="635"/>
      <point x="130" y="710"/>
      <point x="317" y="710" type="curve" smooth="yes"/>
      <point x="495" y="710" type="line"/>
    </contour>
    <contour>
      <point x="606" y="710" type="line"/>
      <point x="606" y="653" type="line"/>
      <point x="396" y="653" type="line"/>
      <point x="396" y="710" type="line"/>
    </contour>
  </outline>
</glyph>
<glyph name="Eth" format="2">
  <advance width="1037"/>
  <unicode hex="00D0"/>
  <outline>
    <contour>
      <point x="25" y="390" type="line"/>
      <point x="25" y="324" type="line"/>
      <point x="544" y="324" type="line"/>
      <point x="544" y="390" type="line"/>
    </contour>
    <component base="D" xOffset="74"/>
  </outline>
</glyph>
<glyph name="ogonek" format="2">
  <advance width="758"/>
  <unicode hex="02DB"/>
  <anchor x="451.0" y="9.0" name="_right"/>
  <outline>
    <contour>
      <point x="479" y="36" type="line"/>
      <point x="278" y="-16"/>
      <point x="170" y="-65"/>
      <point x="170" y="-142" type="curve" smooth="yes"/>
      <point x="170" y="-206"/>
      <point x="243" y="-241"/>
      <point x="354" y="-241" type="curve" smooth="yes"/>
      <point x="457" y="-241"/>
      <point x="516" y="-216"/>
      <point x="561" y="-178" type="curve"/>
      <point x="503" y="-142" type="line"/>
      <point x="490" y="-155"/>
      <point x="467" y="-172"/>
      <point x="434" y="-172" type="curve" smooth="yes"/>
      <point x="404" y="-172"/>
      <point x="385" y="-154"/>
      <point x="385" y="-120" type="curve" smooth="yes"/>
      <point x="385" y="-80"/>
      <point x="417" y="-34"/>
      <point x="532" y="16" type="curve"/>
    </contour>
  </outline>
</glyph>
<glyph name="quoteright" format="2">
  <advance width="312"/>
  <unicode hex="2019"/>
  <outline>
    <contour>
      <point x="119" y="462" type="line"/>
      <point x="202" y="510"/>
      <point x="262" y="570"/>
      <point x="262" y="634" type="curve" smooth="yes"/>
      <point x="262" y="694"/>
      <point x="212" y="720"/>
      <point x="142" y="720" type="curve" smooth="yes"/>
      <point x="73" y="720"/>
      <point x="30" y="691"/>
      <point x="30" y="654" type="curve" smooth="yes"/>
      <point x="30" y="616"/>
      <point x="76" y="588"/>
      <point x="134" y="588" type="curve" smooth="yes"/>
      <point x="171" y="588"/>
      <point x="194" y="596"/>
      <point x="213" y="614" type="curve"/>
      <point x="200" y="616" type="line"/>
      <point x="191" y="570"/>
      <point x="116" y="535"/>
      <point x="45" y="502" type="curve"/>
    </contour>
  </outline>
</glyph>
<glyph name="dagger" format="2">
  <advance width="695"/>
  <unicode hex="2020"/>
  <outline>
    <contour>
      <point x="292" y="486" type="line"/>
      <point x="403" y="486" type="line"/>
      <point x="619" y="413" type="line"/>
      <point x="668" y="413" type="line"/>
      <point x="668" y="576" type="line"/>
      <point x="619" y="576" type="line"/>
      <point x="403" y="522" type="line"/>
      <point x="292" y="522" type="line"/>
      <point x="77" y="576" type="line"/>
      <point x="27" y="576" type="line"/>
      <point x="27" y="413" type="line"/>
      <point x="77" y="413" type="line"/>
    </contour>
    <contour>
      <point x="519" y="710" type="line"/>
      <point x="176" y="710" type="line"/>
      <point x="176" y="675" type="line" smooth="yes"/>
      <point x="176" y="640"/>
      <point x="289" y="568"/>
      <point x="289" y="503" type="curve" smooth="yes"/>
      <point x="289" y="434"/>
      <point x="244" y="388"/>
      <point x="152" y="360" type="curve"/>
      <point x="152" y="340" type="line" smooth="yes"/>
      <point x="152" y="302"/>
      <point x="241" y="204"/>
      <point x="298" y="0" type="curve"/>
      <point x="397" y="0" type="line"/>
      <point x="454" y="204"/>
      <point x="544" y="302"/>
      <point x="544" y="340" type="curve" smooth="yes"/>
      <point x="544" y="360" type="line"/>
      <point x="452" y="388"/>
      <point x="406" y="434"/>
      <point x="406" y="503" type="curve" smooth="yes"/>
      <point x="406" y="568"/>
      <point x="519" y="640"/>
      <point x="519" y="675" type="curve" smooth="yes"/>
    </contour>
  </outline>
</glyph>
<glyph name="trademark" format="2">
  <advance width="1188"/>
  <unicode hex="2122"/>
  <outline>
    <contour>
      <point x="30" y="710" type="line"/>
      <point x="30" y="601" type="line"/>
      <point x="104" y="601" type="line"/>
      <point x="108" y="654" type="line" smooth="yes"/>
      <point x="110" y="670"/>
      <point x="127" y="676"/>
      <point x="171" y="676" type="curve" smooth="yes"/>
      <point x="177" y="676" type="line"/>
      <point x="177" y="432" type="line" smooth="yes"/>
      <point x="177" y="419"/>
      <point x="166" y="416"/>
      <point x="151" y="416" type="curve" smooth="yes"/>
      <point x="142" y="416" type="line"/>
      <point x="142" y="382" type="line"/>
      <point x="376" y="382" type="line"/>
      <point x="376" y="416" type="line"/>
      <point x="366" y="416" type="line" smooth="yes"/>
      <point x="351" y="416"/>
      <point x="341" y="419"/>
      <point x="341" y="432" type="curve" smooth="yes"/>
      <point x="341" y="676" type="line"/>
      <point x="347" y="676" type="line" smooth="yes"/>
      <point x="391" y="676"/>
      <point x="408" y="670"/>
      <point x="409" y="654" type="curve" smooth="yes"/>
      <point x="415" y="601" type="line"/>
      <point x="488" y="601" type="line"/>
      <point x="488" y="710" type="line"/>
    </contour>
    <contour>
      <point x="523" y="382" type="line"/>
      <point x="660" y="382" type="line"/>
      <point x="660" y="416" type="line"/>
      <point x="656" y="416" type="line" smooth="yes"/>
      <point x="643" y="416"/>
      <point x="628" y="418"/>
      <point x="628" y="420" type="curve" smooth="yes"/>
      <point x="628" y="702" type="line"/>
      <point x="614" y="700" type="line"/>
      <point x="727" y="381" type="line"/>
      <point x="839" y="381" type="line"/>
      <point x="957" y="700" type="line"/>
      <point x="944" y="700" type="line"/>
      <point x="944" y="420" type="line" smooth="yes"/>
      <point x="944" y="418"/>
      <point x="931" y="416"/>
      <point x="917" y="416" type="curve" smooth="yes"/>
      <point x="913" y="416" type="line"/>
      <point x="913" y="382" type="line"/>
      <point x="1140" y="382" type="line"/>
      <point x="1140" y="416" type="line"/>
      <point x="1135" y="416" type="line" smooth="yes"/>
      <point x="1118" y="416"/>
      <point x="1108" y="419"/>
      <point x="1108" y="432" type="curve" smooth="yes"/>
      <point x="1108" y="660" type="line" smooth="yes"/>
      <point x="1108" y="674"/>
      <point x="1118" y="677"/>
      <point x="1135" y="677" type="curve" smooth="yes"/>
      <point x="1140" y="677" type="line"/>
      <point x="1140" y="710" type="line"/>
      <point x="884" y="710" type="line"/>
      <point x="780" y="424" type="line"/>
      <point x="843" y="459" type="line"/>
      <point x="780" y="710" type="line"/>
      <point x="523" y="710" type="line"/>
      <point x="523" y="677" type="line"/>
      <point x="530" y="677" type="line" smooth="yes"/>
      <point x="544" y="677"/>
      <point x="556" y="674"/>
      <point x="556" y="660" type="curve" smooth="yes"/>
      <point x="556" y="432" type="line" smooth="yes"/>
      <point x="556" y="419"/>
      <point x="544" y="416"/>
      <point x="530" y="416" type="curve"/>
      <point x="523" y="416" type="line"/>
    </contour>
  </outline>
</glyph>
<glyph name="uni25BE" format="2">
  <advance width="816"/>
  <unicode hex="25BE"/>
  <outline>
    <contour>
      <point x="65" y="464" type="line"/>
      <point x="407" y="91" type="line"/>
      <point x="750" y="464" type="line"/>
    </contour>
  </outline>
</glyph>
<glyph name="at.uc" format="2">
  <advance width="1166"/>
  <outline>
    <contour>
      <point x="595" y="-2" type="curve" smooth="yes"/>
      <point x="336" y="-2"/>
      <point x="154" y="111"/>
      <point x="154" y="310" type="curve" smooth="yes"/>
      <point x="154" y="516"/>
      <point x="357" y="673"/>
      <point x="637" y="673" type="curve" smooth="yes"/>
      <point x="885" y="673"/>
      <point x="1013" y="566"/>
      <point x="1013" y="414" type="curve" smooth="yes"/>
      <point x="1013" y="264"/>
      <point x="934" y="182"/>
      <point x="880" y="182" type="curve" smooth="yes"/>
      <point x="853" y="182"/>
      <point x="850" y="202"/>
      <point x="858" y="252" type="curve" smooth="yes"/>
      <point x="922" y="542" type="line"/>
      <point x="729" y="542" type="line"/>
      <point x="684" y="480" type="line"/>
      <point x="672" y="475" type="line"/>
      <point x="621" y="216" type="line"/>
      <point x="628" y="214"/>
      <point x="639" y="214"/>
      <point x="641" y="220" type="curve"/>
      <point x="659" y="168"/>
      <point x="719" y="126"/>
      <point x="836" y="126" type="curve" smooth="yes"/>
      <point x="996" y="126"/>
      <point x="1143" y="232"/>
      <point x="1143" y="414" type="curve" smooth="yes"/>
      <point x="1143" y="602"/>
      <point x="956" y="733"/>
      <point x="637" y="733" type="curve" smooth="yes"/>
      <point x="290" y="733"/>
      <point x="23" y="554"/>
      <point x="23" y="310" type="curve" smooth="yes"/>
      <point x="23" y="72"/>
      <point x="269" y="-62"/>
      <point x="595" y="-62" type="curve" smooth="yes"/>
      <point x="743" y="-62"/>
      <point x="884" y="-35"/>
      <point x="971" y="-2" type="curve"/>
      <point x="942" y="56" type="line"/>
      <point x="848" y="24"/>
      <point x="733" y="-2"/>
    </contour>
    <contour>
      <point x="499" y="120" type="curve" smooth="yes"/>
      <point x="609" y="120"/>
      <point x="658" y="182"/>
      <point x="729" y="298" type="curve"/>
      <point x="690" y="330" type="line"/>
      <point x="632" y="230"/>
      <point x="592" y="178"/>
      <point x="552" y="178" type="curve" smooth="yes"/>
      <point x="516" y="178"/>
      <point x="502" y="212"/>
      <point x="502" y="283" type="curve" smooth="yes"/>
      <point x="502" y="384"/>
      <point x="542" y="491"/>
      <point x="609" y="491" type="curve" smooth="yes"/>
      <point x="652" y="491"/>
      <point x="675" y="463"/>
      <point x="702" y="401" type="curve"/>
      <point x="700" y="380"/>
      <point x="738" y="407"/>
      <point x="741" y="428" type="curve"/>
      <point x="708" y="515"/>
      <point x="671" y="548"/>
      <point x="563" y="548" type="curve" smooth="yes"/>
      <point x="383" y="548"/>
      <point x="268" y="417"/>
      <point x="268" y="296" type="curve" smooth="yes"/>
      <point x="268" y="179"/>
      <point x="370" y="120"/>
    </contour>
  </outline>
</glyph>
<glyph name="blacksquare" format="2">
  <advance width="743"/>
  <outline>
    <contour>
      <point x="104" y="104" type="line"/>
      <point x="639" y="104" type="line"/>
      <point x="639" y="522" type="line"/>
      <point x="104" y="522" type="line"/>
    </contour>
  </outline>
</glyph>
<glyph name="blacktriangle" format="2">
  <advance width="724"/>
  <outline>
    <contour>
      <point x="162" y="40" type="line"/>
      <point x="639" y="307" type="line"/>
      <point x="162" y="575" type="line"/>
    </contour>
  </outline>
</glyph>
<glyph name="colonsign.proportional" format="2">
  <advance width="944"/>
  <outline>
    <contour>
      <point x="300" y="-120" type="line"/>
      <point x="393" y="-120" type="line"/>
      <point x="415" y="39" type="line"/>
      <point x="416" y="60" type="line"/>
      <point x="494" y="659" type="line"/>
      <point x="510" y="675" type="line"/>
      <point x="528" y="790" type="line"/>
      <point x="436" y="790" type="line"/>
      <point x="418" y="674" type="line"/>
      <point x="424" y="652" type="line"/>
      <point x="352" y="92" type="line"/>
      <point x="326" y="62" type="line"/>
    </contour>
    <contour>
      <point x="473" y="-120" type="line"/>
      <point x="567" y="-120" type="line"/>
      <point x="587" y="24" type="line"/>
      <point x="584" y="42" type="line"/>
      <point x="664" y="658" type="line"/>
      <point x="686" y="679" type="line"/>
      <point x="702" y="790" type="line"/>
      <point x="609" y="790" type="line"/>
      <point x="594" y="686" type="line"/>
      <point x="596" y="670" type="line"/>
      <point x="516" y="44" type="line"/>
      <point x="495" y="23" type="line"/>
    </contour>
    <contour>
      <point x="550" y="648" type="curve" smooth="yes"/>
      <point x="672" y="648"/>
      <point x="739" y="609"/>
      <point x="765" y="558" type="curve"/>
      <point x="835" y="571"/>
      <point x="759" y="624"/>
      <point x="711" y="631" type="curve"/>
      <point x="711" y="488" type="line"/>
      <point x="897" y="488" type="line"/>
      <point x="897" y="631" type="line"/>
      <point x="875" y="654"/>
      <point x="750" y="710"/>
      <point x="525" y="710" type="curve" smooth="yes"/>
      <point x="245" y="710"/>
      <point x="38" y="571"/>
      <point x="38" y="355" type="curve" smooth="yes"/>
      <point x="38" y="138"/>
      <point x="237" y="0"/>
      <point x="520" y="0" type="curve" smooth="yes"/>
      <point x="751" y="0"/>
      <point x="870" y="99"/>
      <point x="906" y="240" type="curve"/>
      <point x="803" y="264" type="line"/>
      <point x="777" y="145"/>
      <point x="690" y="64"/>
      <point x="565" y="64" type="curve" smooth="yes"/>
      <point x="372" y="64"/>
      <point x="301" y="172"/>
      <point x="301" y="355" type="curve" smooth="yes"/>
      <point x="301" y="530"/>
      <point x="360" y="648"/>
    </contour>
  </outline>
</glyph>
<glyph name="commaaccent" format="2">
  <advance width="630"/>
  <anchor x="305.0" y="33.0" name="_bottom"/>
  <outline>
    <contour>
      <point x="270" y="-322" type="line"/>
      <point x="360" y="-266"/>
      <point x="410" y="-214"/>
      <point x="410" y="-150" type="curve" smooth="yes"/>
      <point x="410" y="-92"/>
      <point x="354" y="-65"/>
      <point x="278" y="-65" type="curve" smooth="yes"/>
      <point x="200" y="-65"/>
      <point x="152" y="-94"/>
      <point x="152" y="-132" type="curve" smooth="yes"/>
      <point x="152" y="-170"/>
      <point x="198" y="-197"/>
      <point x="265" y="-197" type="curve" smooth="yes"/>
      <point x="287" y="-197"/>
      <point x="303" y="-193"/>
      <point x="316" y="-186" type="curve"/>
      <point x="308" y="-178"/>
      <point x="298" y="-165"/>
      <point x="299" y="-172" type="curve"/>
      <point x="294" y="-213"/>
      <point x="224" y="-241"/>
      <point x="137" y="-280" type="curve"/>
    </contour>
  </outline>
</glyph>
<glyph name="f_i" format="2">
  <advance width="885"/>
  <outline>
    <contour>
      <point x="-2" y="521" type="line"/>
      <point x="-2" y="481" type="line"/>
      <point x="554" y="481" type="line"/>
      <point x="554" y="521" type="line"/>
    </contour>
    <contour>
      <point x="511" y="717" type="curve" smooth="yes"/>
      <point x="566" y="717"/>
      <point x="608" y="705"/>
      <point x="618" y="687" type="curve"/>
      <point x="568" y="726" type="line"/>
      <point x="568" y="604" type="line"/>
      <point x="799" y="604" type="line"/>
      <point x="799" y="716" type="line"/>
      <point x="752" y="732"/>
      <point x="638" y="759"/>
      <point x="518" y="759" type="curve" smooth="yes"/>
      <point x="253" y="759"/>
      <point x="91" y="697"/>
      <point x="91" y="535" type="curve" smooth="yes"/>
      <point x="91" y="66" type="line" smooth="yes"/>
      <point x="91" y="42"/>
      <point x="71" y="34"/>
      <point x="33" y="34" type="curve" smooth="yes"/>
      <point x="17" y="34" type="line"/>
      <point x="17" y="0" type="line"/>
      <point x="443" y="0" type="line"/>
      <point x="443" y="34" type="line"/>
      <point x="438" y="34" type="line" smooth="yes"/>
      <point x="406" y="34"/>
      <point x="389" y="38"/>
      <point x="389" y="52" type="curve" smooth="yes"/>
      <point x="389" y="571" type="line" smooth="yes"/>
      <point x="389" y="672"/>
      <point x="418" y="717"/>
    </contour>
    <contour>
      <point x="827" y="521" type="line"/>
      <point x="478" y="521" type="line"/>
      <point x="478" y="481" type="line"/>
      <point x="489" y="481" type="line" smooth="yes"/>
      <point x="517" y="481"/>
      <point x="527" y="470"/>
      <point x="527" y="448" type="curve" smooth="yes"/>
      <point x="527" y="64" type="line" smooth="yes"/>
      <point x="527" y="40"/>
      <point x="507" y="34"/>
      <point x="485" y="34" type="curve" smooth="yes"/>
      <point x="483" y="34" type="line"/>
      <point x="483" y="0" type="line"/>
      <point x="874" y="0" type="line"/>
      <point x="874" y="34" type="line"/>
      <point x="873" y="34" type="line" smooth="yes"/>
      <point x="847" y="34"/>
      <point x="827" y="40"/>
      <point x="827" y="64" type="curve" smooth="yes"/>
    </contour>
  </outline>
</glyph>
<glyph name="whitedownpointingtriangle" format="2">
  <advance width="816"/>
  <outline>
    <contour>
      <point x="750" y="464" type="line"/>
      <point x="65" y="464" type="line"/>
      <point x="407" y="91" type="line"/>
    </contour>
    <contour>
      <point x="660" y="426" type="line"/>
      <point x="654" y="431" type="line"/>
      <point x="404" y="155" type="line"/>
      <point x="412" y="155" type="line"/>
      <point x="160" y="431" type="line"/>
      <point x="155" y="426" type="line"/>
    </contour>
  </outline>
</glyph>
